General
Complete name                    : Sebbe.2010.avi
Format                           : AVI
File size                        : 1.37 GiB
Duration                         : 1h 19mn
Overall bit rate                 : 2 462 Kbps

Video

Format                           : MPEG-4 Visual
Codec ID/Hint                    : XviD
Duration                         : 1h 19mn
Bit rate                         : 2 003 Kbps
Width                            : 720 pixels
Height                           : 436 pixels
Display aspect ratio             : 2.35:1
Stream size                      : 1.11 GiB (81%)
Writing library                  : XviD 1.1.2 (UTC 2006-11-01)

Audio

Format                           : AC-3
Duration                         : 1h 19mn
Bit rate                         : 448 Kbps
Channel(s)                       : 6 channels
Channel positions                : Front: L C R, Side: L R, LFE
Sampling rate                    : 48.0 KHz
Stream size                      : 255 MiB (18%)

 
http://www.imdb.com/title/tt1548629/